REM MD5 5a6e6a68e85925596983799278a5fec6
FILE "Air Combat (USA).bin" BINARY
  TRACK 01 MODE2/2352
    INDEX 01 00:00:00
  TRACK 02 AUDIO
    INDEX 00 10:02:24
    INDEX 01 10:04:24
  TRACK 03 AUDIO
    INDEX 00 13:30:44
    INDEX 01 13:32:44
  TRACK 04 AUDIO
    INDEX 00 16:13:01
    INDEX 01 16:15:01
  TRACK 05 AUDIO
    INDEX 00 18:46:16
    INDEX 01 18:48:16
  TRACK 06 AUDIO
    INDEX 00 21:30:43
    INDEX 01 21:32:43
  TRACK 07 AUDIO
    INDEX 00 22:46:29
    INDEX 01 22:48:29
  TRACK 08 AUDIO
    INDEX 00 24:45:37
    INDEX 01 24:47:37
  TRACK 09 AUDIO
    INDEX 00 27:32:23
    INDEX 01 27:34:23
  TRACK 10 AUDIO
    INDEX 00 30:31:48
    INDEX 01 30:33:48
  TRACK 11 AUDIO
    INDEX 00 33:01:19
    INDEX 01 33:03:19
  TRACK 12 AUDIO
    INDEX 00 35:05:50
    INDEX 01 35:07:50
  TRACK 13 AUDIO
    INDEX 00 36:31:06
    INDEX 01 36:33:06
  TRACK 14 AUDIO
    INDEX 00 37:57:07
    INDEX 01 37:59:07
  TRACK 15 AUDIO
    INDEX 00 38:09:65
    INDEX 01 38:11:65
  TRACK 16 AUDIO
    INDEX 00 39:18:36
    INDEX 01 39:20:36
  TRACK 17 AUDIO
    INDEX 00 39:32:37
    INDEX 01 39:34:37
  TRACK 18 AUDIO
    INDEX 00 41:33:68
    INDEX 01 41:35:68
  TRACK 19 AUDIO
    INDEX 00 44:05:24
    INDEX 01 44:07:24
  TRACK 20 AUDIO
    INDEX 00 44:57:25
    INDEX 01 44:59:25
  TRACK 21 AUDIO
    INDEX 00 46:28:29
    INDEX 01 46:30:29
  TRACK 22 AUDIO
    INDEX 00 46:44:09
    INDEX 01 46:46:09
  TRACK 23 AUDIO
    INDEX 00 46:50:47
    INDEX 01 46:52:47
  TRACK 24 AUDIO
    INDEX 00 47:02:42
    INDEX 01 47:04:42
  TRACK 25 AUDIO
    INDEX 00 47:09:05
    INDEX 01 47:11:05
  TRACK 26 AUDIO
    INDEX 00 47:19:40
    INDEX 01 47:21:40
  TRACK 27 AUDIO
    INDEX 00 47:26:22
    INDEX 01 47:28:22
  TRACK 28 AUDIO
    INDEX 00 47:32:61
    INDEX 01 47:34:61
  TRACK 29 AUDIO
    INDEX 00 47:45:40
    INDEX 01 47:47:40
  TRACK 30 AUDIO
    INDEX 00 47:54:09
    INDEX 01 47:56:09
  TRACK 31 AUDIO
    INDEX 00 48:10:45
    INDEX 01 48:12:45
  TRACK 32 AUDIO
    INDEX 00 48:22:57
    INDEX 01 48:24:57
  TRACK 33 AUDIO
    INDEX 00 48:29:20
    INDEX 01 48:31:20
  TRACK 34 AUDIO
    INDEX 00 48:35:64
    INDEX 01 48:37:64
  TRACK 35 AUDIO
    INDEX 00 48:47:30
    INDEX 01 48:49:30
  TRACK 36 AUDIO
    INDEX 00 48:54:11
    INDEX 01 48:56:11
  TRACK 37 AUDIO
    INDEX 00 49:03:58
    INDEX 01 49:05:58
  TRACK 38 AUDIO
    INDEX 00 49:28:41
    INDEX 01 49:30:41
  TRACK 39 AUDIO
    INDEX 00 49:35:04
    INDEX 01 49:37:04
  TRACK 40 AUDIO
    INDEX 00 49:42:46
    INDEX 01 49:44:46
  TRACK 41 AUDIO
    INDEX 00 49:53:08
    INDEX 01 49:55:08
  TRACK 42 AUDIO
    INDEX 00 49:59:46
    INDEX 01 50:01:46
  TRACK 43 AUDIO
    INDEX 00 50:06:09
    INDEX 01 50:08:09
  TRACK 44 AUDIO
    INDEX 00 50:30:10
    INDEX 01 50:32:10
  TRACK 45 AUDIO
    INDEX 00 50:43:26
    INDEX 01 50:45:26
  TRACK 46 AUDIO
    INDEX 00 50:49:64
    INDEX 01 50:51:64
  TRACK 47 AUDIO
    INDEX 00 50:56:42
    INDEX 01 50:58:42
  TRACK 48 AUDIO
    INDEX 00 51:14:65
    INDEX 01 51:16:65
  TRACK 49 AUDIO
    INDEX 00 51:21:28
    INDEX 01 51:23:28
  TRACK 50 AUDIO
    INDEX 00 51:36:14
    INDEX 01 51:38:14
  TRACK 51 AUDIO
    INDEX 00 51:42:52
    INDEX 01 51:44:52
  TRACK 52 AUDIO
    INDEX 00 51:53:37
    INDEX 01 51:55:37
  TRACK 53 AUDIO
    INDEX 00 52:01:11
    INDEX 01 52:03:11
  TRACK 54 AUDIO
    INDEX 00 52:07:49
    INDEX 01 52:09:49
  TRACK 55 AUDIO
    INDEX 00 52:14:12
    INDEX 01 52:16:12
  TRACK 56 AUDIO
    INDEX 00 52:20:51
    INDEX 01 52:22:51
  TRACK 57 AUDIO
    INDEX 00 52:27:15
    INDEX 01 52:29:15
  TRACK 58 AUDIO
    INDEX 00 52:33:66
    INDEX 01 52:35:66
  TRACK 59 AUDIO
    INDEX 00 52:46:25
    INDEX 01 52:48:25
  TRACK 60 AUDIO
    INDEX 00 52:53:06
    INDEX 01 52:55:06
  TRACK 61 AUDIO
    INDEX 00 53:01:37
    INDEX 01 53:03:37
  TRACK 62 AUDIO
    INDEX 00 53:21:39
    INDEX 01 53:23:39
  TRACK 63 AUDIO
    INDEX 00 53:33:32
    INDEX 01 53:35:32
REM LEADOUT 57:36:03
